<?xml version="1.0" encoding="utf-8"?>
<!-- Generator: Adobe Illustrator 28.1.0, SVG Export Plug-In . SVG Version: 6.00 Build 0)  -->
<svg version="1.1" id="Lager_1" xmlns="http://www.w3.org/2000/svg" xmlns:xlink="http://www.w3.org/1999/xlink" x="0px" y="0px"
	 viewBox="0 0 928 574" style="enable-background:new 0 0 928 574;" xml:space="preserve">
<style type="text/css">
	.st0{fill:#B3E3FF;stroke:#404040;stroke-width:4;stroke-linecap:round;stroke-linejoin:round;stroke-miterlimit:10;}
	.st1{fill:#4CD3D6;stroke:#404040;stroke-width:4;stroke-linecap:round;stroke-linejoin:round;stroke-miterlimit:10;}
	.st2{fill:#B18BE8;stroke:#404040;stroke-width:4;stroke-linecap:round;stroke-linejoin:round;stroke-miterlimit:10;}
	.st3{fill:#FC8363;stroke:#404040;stroke-width:4;stroke-linecap:round;stroke-linejoin:round;stroke-miterlimit:10;}
	.st4{fill:#4ED1A1;stroke:#404040;stroke-width:4;stroke-linecap:round;stroke-linejoin:round;stroke-miterlimit:10;}
	.st5{fill:#FC83E8;stroke:#404040;stroke-width:4;stroke-linecap:round;stroke-linejoin:round;stroke-miterlimit:10;}
	.st6{fill:none;stroke:#404040;stroke-width:4;stroke-miterlimit:10;}
	.st7{fill:#B18BE8;stroke:#404040;stroke-width:4;stroke-miterlimit:10;}
	.st8{fill:#4ED1A1;stroke:#404040;stroke-width:4;stroke-miterlimit:10;}
	.st9{fill:none;stroke:#CCCCCC;stroke-width:4;stroke-linecap:round;stroke-linejoin:round;stroke-dasharray:0,14.3051;}
	.st10{fill:none;stroke:#CCCCCC;stroke-width:4;stroke-linecap:round;stroke-linejoin:round;}
	.st11{fill:none;stroke:#CCCCCC;stroke-width:4;stroke-linecap:round;stroke-linejoin:round;stroke-dasharray:0,14.1689;}
	.st12{fill:none;stroke:#CCCCCC;stroke-width:4;stroke-linecap:round;stroke-linejoin:round;stroke-dasharray:0,13.9788;}
	.st13{fill:none;stroke:#CCCCCC;stroke-width:4;stroke-linecap:round;stroke-linejoin:round;stroke-dasharray:0,14.7877;}
	.st14{fill:none;stroke:#CCCCCC;stroke-width:4;stroke-linecap:round;stroke-linejoin:round;stroke-dasharray:0,14.9632;}
	.st15{fill:#B3E3FF;stroke:#404040;stroke-width:4.0001;stroke-miterlimit:10.0001;}
	.st16{fill:#B3E3FF;stroke:#404040;stroke-width:4;stroke-miterlimit:10;}
	.st17{fill:none;stroke:#404040;stroke-width:4;stroke-linecap:round;stroke-linejoin:round;stroke-miterlimit:10;}
	.st18{fill:none;stroke:#CCCCCC;stroke-width:4;stroke-linecap:round;stroke-linejoin:round;stroke-dasharray:0,12.543;}
	.st19{fill:none;stroke:#CCCCCC;stroke-width:4;stroke-linecap:round;stroke-linejoin:round;stroke-dasharray:0,13.6844;}
	.st20{fill:none;stroke:#CCCCCC;stroke-width:4;stroke-linecap:round;stroke-linejoin:round;stroke-dasharray:0,13.7717;}
	.st21{fill:#4CD3D6;stroke:#404040;stroke-width:4;stroke-linejoin:round;stroke-miterlimit:10;}
	.st22{fill:#FC83E8;stroke:#404040;stroke-width:4.0001;stroke-miterlimit:10.0001;}
	.st23{fill:#FC83E8;stroke:#404040;stroke-width:4;stroke-miterlimit:10;}
	.st24{font-family:'Consolas';}
	.st25{font-size:18px;}
</style>
<path class="st0" d="M209.2,71.6h96.2v50h-96.2V71.6z"/>
<path class="st1" d="M484.6,71.6h96.2v50h-96.2V71.6z"/>
<path class="st2" d="M622.4,71.6h96.2v50h-96.2V71.6z"/>
<path class="st3" d="M346.9,71.6h96.2v50h-96.2V71.6z"/>
<path class="st4" d="M760.2,71.6h96.2v50h-96.2V71.6z"/>
<path class="st5" d="M71.4,71.6h96.2v50H71.4V71.6z"/>
<path class="st6" d="M700.5,183.1H94.7"/>
<path class="st6" d="M488.3,459.9c0-17,13.8-30.8,30.8-30.8"/>
<path class="st6" d="M318,459.9c0-17-13.8-30.8-30.8-30.8"/>
<path class="st6" d="M840.1,429.1H243.8"/>
<circle class="st7" cx="549.1" cy="429.1" r="15.8"/>
<circle class="st7" cx="379.7" cy="429.1" r="15.8"/>
<circle class="st7" cx="840.1" cy="429.1" r="15.8"/>
<path class="st6" d="M318,459.9c0,17,13.8,30.8,30.8,30.8h107.9 M148.8,275c0,17,13.8,30.8,30.8,30.8h17.3"/>
<circle class="st8" cx="379.7" cy="490.6" r="15.8"/>
<circle class="st8" cx="426.6" cy="490.6" r="15.8"/>
<path class="st6" d="M456.7,490.6h0.9c17,0,30.8-13.8,30.8-30.8"/>
<path class="st9" d="M121.1,306.1H85.4"/>
<path class="st10" d="M840.2,306.1"/>
<path class="st11" d="M826,306.1H308.8"/>
<path class="st10" d="M609.4,367.6"/>
<path class="st12" d="M595.4,367.6H85.2"/>
<path class="st10" d="M840.2,367.6"/>
<path class="st13" d="M825.4,367.6h-51.8"/>
<path class="st10" d="M840.1,244.6"/>
<path class="st14" d="M825.2,244.6h-82.3"/>
<path class="st6" d="M148.8,275.4c0-17-13.8-30.8-30.8-30.8 M275.6,275c0,17-13.8,30.8-30.8,30.8h-48 M275.6,275.4
	c0-17,13.8-30.8,30.8-30.8 M337.1,429.1c-17,0-30.8-13.8-30.8-30.8v-61.8 M306.3,336.5c0-17-13.8-30.8-30.8-30.8"/>
<path class="st6" d="M708.9,244.6H103.1"/>
<ellipse transform="matrix(0.9995 -3.028886e-02 3.028886e-02 0.9995 -7.3687 2.7595)" class="st15" cx="87.4" cy="244.6" rx="15.8" ry="15.8"/>
<circle class="st16" cx="379.7" cy="244.6" r="15.8"/>
<circle class="st16" cx="708.9" cy="244.6" r="15.8"/>
<path class="st17" d="M87.5,207.9v13.2 M81.3,212.8l6.1-6.1l6.1,6.1"/>
<path class="st18" d="M128.4,429.1H84.5"/>
<path class="st10" d="M324.5,490.6"/>
<path class="st19" d="M310.8,490.6H85.1"/>
<path class="st10" d="M840.2,490.6"/>
<path class="st20" d="M826.4,490.6H489"/>
<path class="st6" d="M148.8,275v123.4c0,17,13.8,30.8,30.8,30.8h95.7"/>
<circle class="st7" cx="259.5" cy="429.1" r="15.7"/>
<circle class="st7" cx="212.6" cy="429.1" r="15.8"/>
<circle class="st3" cx="212.6" cy="306.1" r="15.8"/>
<path class="st6" d="M600.4,398.4c0,17-13.8,30.8-30.8,30.8 M770.6,398.4c0,17,13.8,30.8,30.8,30.8h23 M632,367.6h-0.9
	c-17,0-30.8,13.8-30.8,30.8 M770.6,398.4c0-17-13.8-30.8-30.8-30.8H632"/>
<circle class="st21" cx="708.9" cy="367.6" r="15.8"/>
<circle class="st21" cx="662.1" cy="367.6" r="15.8"/>
<line class="st6" x1="228.4" y1="305.7" x2="275.6" y2="305.7"/>
<line class="st6" x1="708.9" y1="351.9" x2="708.9" y2="260.4"/>
<ellipse transform="matrix(0.9995 -3.028886e-02 3.028886e-02 0.9995 -5.5058 2.7313)" class="st22" cx="87.4" cy="183.1" rx="15.8" ry="15.8"/>
<path class="st14" d="M825.2,183.1h-82.3"/>
<circle class="st23" cx="708.9" cy="183.1" r="15.8"/>
<circle class="st23" cx="379.7" cy="183.1" r="15.8"/>
<path class="st17" d="M379.7,208.5v13.2 M372.9,213.4l6.8-6.1l6.7,6.1"/>
<path class="st17" d="M708.9,208.5v13.2 M702.1,213.4l6.8-6.1l6.7,6.1"/>
<text transform="matrix(1 0 0 1 81.5142 101.5378)" class="st24 st25">gh-pages</text>
<text transform="matrix(1 0 0 1 239.7069 101.5375)" class="st24 st25">main</text>
<text transform="matrix(1 0 0 1 367.5747 101.8607)" class="st24 st25">hotfix</text>
<text transform="matrix(1 0 0 1 497.2271 101.0527)" class="st24 st25">staging</text>
<text transform="matrix(1 0 0 1 635.8621 101.0529)" class="st24 st25">develop</text>
<text transform="matrix(1 0 0 1 772.5584 101.0527)" class="st24 st25">feature</text>
</svg>
